<?xml version="1.0" encoding="UTF-8"?>
<svg id="Layer_2" data-name="Layer 2" xmlns="http://www.w3.org/2000/svg" viewBox="0 0 1024 1024">
  <defs>
    <style>
      .cls-1 {
        fill: #f59e0b;
      }

      .cls-1, .cls-2 {
        stroke-width: 0px;
      }

      .cls-2 {
        fill: #0c0a09;
      }
    </style>
  </defs>
  <g id="icon-dark">
    <path id="background" class="cls-2" d="M0,0h1024v1024H0V0Z"/>
    <g>
      <path class="cls-1" d="M410.01,577.81l20.18-.03c.26,30.17.33,60.34.22,90.52v92.52c-11.56.46-23.29.08-34.85.07l-65.92-.07h-66.36c-14.8.03-29.67.28-44.45-.26,15.61-16.96,31.63-33.94,47.87-50.3,16.64.54,33.28.24,49.92.02l15.32-11.43c33.78-25.24,62.12-52.21,73.35-94.5,2.32-8.75,3.44-17.61,4.73-26.54Z"/>
      <path class="cls-1" d="M74.89,331.48c21.94.42,43.93.15,65.88.17l152.65-.13c6.37,12.95,13.57,25.42,20.29,38.19,10.35,20.13,20.83,40.18,31.45,60.17,9.81,18.18,20.62,36.2,28.76,55.21-.55.15-1.06.18-1.63.15-4.02-.26-8.45-1.54-12.43-2.32-12.29-2.4-24.42-5-36.52-8.26-16.5-4.43-33.05-9.22-49.09-15.12-3.91-1.48-7.8-3-11.67-4.57-3.87-1.56-7.73-3.17-11.57-4.82-3.84-1.65-7.66-3.34-11.46-5.08-3.8-1.74-7.58-3.51-11.34-5.33-3.76-1.82-7.5-3.68-11.22-5.59-3.72-1.9-7.42-3.85-11.1-5.83s-7.33-4.01-10.96-6.08c-3.63-2.07-7.24-4.18-10.82-6.32-3.58-2.15-7.14-4.34-10.68-6.56-3.54-2.23-7.05-4.49-10.53-6.8-3.49-2.31-6.94-4.65-10.38-7.03-3.43-2.38-6.84-4.8-10.22-7.26-3.38-2.46-6.73-4.95-10.05-7.49-3.32-2.53-6.62-5.1-9.89-7.71-3.27-2.61-6.5-5.25-9.71-7.93-3.21-2.68-6.38-5.39-9.53-8.14-8.97-7.74-20.74-16.48-28.22-25.51Z"/>
      <path class="cls-1" d="M430.19,577.77l185.88-.02c6.92,51.27,30.6,88.44,71.49,119.6,5.4,4.12,11.99,9.25,18.51,11.44,6.54,2.2,40.91.89,50.22.85,9.41,9.03,18.27,18.7,27.37,28.05,7.59,7.8,15.57,15.34,22.99,23.28-29.37.49-58.87-.18-88.25-.15l-199.3.13c-29.52,0-59.21-.85-88.71-.14v-92.52c.12-30.17.05-60.34-.21-90.52Z"/>
      <path class="cls-1" d="M305.69,300.03l166.89.12c60.02-.4,120.03-.43,180.05-.1,25.11.09,50.24-.32,75.34.17,10.34,12.54,24.17,23.51,39.84,28.43,15.9,4.99,42.14,3.15,59.3,3.14l63.99-.03c10.06.01,21.62-1.15,31.47.98,5.75,1.24,10.9,4.15,15.1,8.24.44.42.87.86,1.29,1.3s.83.9,1.22,1.36c.4.46.78.94,1.15,1.42.37.48.73.98,1.08,1.48.35.5.68,1.01,1.01,1.53.32.52.64,1.04.93,1.57.3.53.58,1.07.86,1.62.27.55.53,1.1.77,1.66.24.56.48,1.12.69,1.69.22.57.42,1.15.61,1.73.19.58.36,1.17.52,1.75.16.59.31,1.18.44,1.78.13.6.25,1.19.35,1.8.1.6.19,1.21.26,1.81.07.61.13,1.21.17,1.82.04.61.07,1.22.08,1.83.11,9.52-4.48,19.22-11.15,25.86-.57.58-1.16,1.14-1.78,1.67-.61.53-1.24,1.04-1.9,1.53-.65.49-1.32.95-2,1.39-.69.44-1.39.85-2.1,1.23-.72.38-1.45.74-2.19,1.07-.74.33-1.5.63-2.26.91-.77.27-1.54.52-2.32.74-.78.22-1.57.4-2.37.56-10.41,2.1-28.07.85-39.23.86h-79.55c-51.16-.18-81.24-1.82-125.05,31.67-8.72,6.67-16.55,14.64-23.61,23.03-23.32,27.71-33.04,56.87-37.64,92.25l-205.03.37c.26-28.33-8.37-65.35-20.6-90.89-7.05-14.74-15.76-28.89-23.35-43.38l-42.53-80.04c-3.43-6.4-17.9-30.39-18.77-35.94Z"/>
      <path class="cls-1" d="M410.01,577.81l20.18-.03c.26,30.17.33,60.34.22,90.52v92.52c-11.56.46-23.29.08-34.85.07l-65.92-.07h-66.36c-14.8.03-29.67.28-44.45-.26,15.61-16.96,31.63-33.94,47.87-50.3,16.64.54,33.28.24,49.92.02l15.32-11.43c33.78-25.24,62.12-52.21,73.35-94.5,2.32-8.75,3.44-17.61,4.73-26.54Z"/>
      <path class="cls-1" d="M74.89,331.48c21.94.42,43.93.15,65.88.17l152.65-.13c6.37,12.95,13.57,25.42,20.29,38.19,10.35,20.13,20.83,40.18,31.45,60.17,9.81,18.18,20.62,36.2,28.76,55.21-.55.15-1.06.18-1.63.15-4.02-.26-8.45-1.54-12.43-2.32-12.29-2.4-24.42-5-36.52-8.26-16.5-4.43-33.05-9.22-49.09-15.12-3.91-1.48-7.8-3-11.67-4.57-3.87-1.56-7.73-3.17-11.57-4.82-3.84-1.65-7.66-3.34-11.46-5.08-3.8-1.74-7.58-3.51-11.34-5.33-3.76-1.82-7.5-3.68-11.22-5.59-3.72-1.9-7.42-3.85-11.1-5.83s-7.33-4.01-10.96-6.08c-3.63-2.07-7.24-4.18-10.82-6.32-3.58-2.15-7.14-4.34-10.68-6.56-3.54-2.23-7.05-4.49-10.53-6.8-3.49-2.31-6.94-4.65-10.38-7.03-3.43-2.38-6.84-4.8-10.22-7.26-3.38-2.46-6.73-4.95-10.05-7.49-3.32-2.53-6.62-5.1-9.89-7.71-3.27-2.61-6.5-5.25-9.71-7.93-3.21-2.68-6.38-5.39-9.53-8.14-8.97-7.74-20.74-16.48-28.22-25.51Z"/>
      <path class="cls-1" d="M430.19,577.77l185.88-.02c6.92,51.27,30.6,88.44,71.49,119.6,5.4,4.12,11.99,9.25,18.51,11.44,6.54,2.2,40.91.89,50.22.85,9.41,9.03,18.27,18.7,27.37,28.05,7.59,7.8,15.57,15.34,22.99,23.28-29.37.49-58.87-.18-88.25-.15l-199.3.13c-29.52,0-59.21-.85-88.71-.14v-92.52c.12-30.17.05-60.34-.21-90.52Z"/>
      <path class="cls-1" d="M305.69,300.03l166.89.12c60.02-.4,120.03-.43,180.05-.1,25.11.09,50.24-.32,75.34.17,10.34,12.54,24.17,23.51,39.84,28.43,15.9,4.99,42.14,3.15,59.3,3.14l63.99-.03c10.06.01,21.62-1.15,31.47.98,5.75,1.24,10.9,4.15,15.1,8.24.44.42.87.86,1.29,1.3s.83.9,1.22,1.36c.4.46.78.94,1.15,1.42.37.48.73.98,1.08,1.48.35.5.68,1.01,1.01,1.53.32.52.64,1.04.93,1.57.3.53.58,1.07.86,1.62.27.55.53,1.1.77,1.66.24.56.48,1.12.69,1.69.22.57.42,1.15.61,1.73.19.58.36,1.17.52,1.75.16.59.31,1.18.44,1.78.13.6.25,1.19.35,1.8.1.6.19,1.21.26,1.81.07.61.13,1.21.17,1.82.04.61.07,1.22.08,1.83.11,9.52-4.48,19.22-11.15,25.86-.57.58-1.16,1.14-1.78,1.67-.61.53-1.24,1.04-1.9,1.53-.65.49-1.32.95-2,1.39-.69.44-1.39.85-2.1,1.23-.72.38-1.45.74-2.19,1.07-.74.33-1.5.63-2.26.91-.77.27-1.54.52-2.32.74-.78.22-1.57.4-2.37.56-10.41,2.1-28.07.85-39.23.86h-79.55c-51.16-.18-81.24-1.82-125.05,31.67-8.72,6.67-16.55,14.64-23.61,23.03-23.32,27.71-33.04,56.87-37.64,92.25l-205.03.37c.26-28.33-8.37-65.35-20.6-90.89-7.05-14.74-15.76-28.89-23.35-43.38l-42.53-80.04c-3.43-6.4-17.9-30.39-18.77-35.94Z"/>
    </g>
  </g>
</svg>